<svg xmlns="http://www.w3.org/2000/svg" viewBox="0 0 24 24"><defs><style>.a{fill:none;stroke:currentColor;stroke-linecap:round;stroke-linejoin:round;stroke-width:1.5px;}</style></defs><title>graph-statistics-coffee</title><path class="a" d="M15.75,23.229c-2.434,0-4.5-1.316-4.5-3.75v-3.75h9v3.75C20.25,20.267,19.643,23.229,15.75,23.229Z"/><line class="a" x1="8.25" y1="12.729" x2="6.75" y2="15.729"/><path class="a" d="M11.25,12.729h-9a1.5,1.5,0,0,1-1.5-1.5v-9a1.5,1.5,0,0,1,1.5-1.5H18a1.5,1.5,0,0,1,1.5,1.5v4.5"/><line class="a" x1="5.25" y1="15.729" x2="8.25" y2="15.729"/><line class="a" x1="3.75" y1="9.729" x2="11.25" y2="9.729"/><line class="a" x1="5.25" y1="9.729" x2="5.25" y2="7.479"/><line class="a" x1="8.25" y1="9.729" x2="8.25" y2="5.979"/><line class="a" x1="11.25" y1="9.729" x2="11.25" y2="3.729"/><path class="a" d="M14.277,10.184c-1.1,1.1,1.089,1.471.015,2.545"/><path class="a" d="M17.441,8.269c-1.912,1.911,1.9,2.561.026,4.432"/><path class="a" d="M20.25,16.479H21a2.25,2.25,0,0,1,0,4.5H19.867"/></svg>